<svg height="478pt" viewBox="-27 0 478 478.553" width="478pt" xmlns="http://www.w3.org/2000/svg"><path d="m357.925781 404.726562c-38.964843-6.480468-90.539062-10.050781-145.476562-10.050781-23.113281 0-46.140625.632813-67.140625 1.878907v-176.632813l195.210937-79.632813c2.96875-1.257812 4.902344-4.167968 4.910157-7.394531.007812-3.226562-1.910157-6.148437-4.875-7.421875l-195.246094-79.628906v-17.84375c0-15.464844-12.535156-28-28-28s-28 12.535156-28 28v373.5c-24 3.015625-44.550782 6.925781-59.027344 11.390625-12.859375 3.96875-30.003906 10.746094-30.003906 23.726563 0 14.410156 20.472656 24.246093 66.4375 31.886718 38.964844 6.480469 90.667968 10.050782 145.605468 10.050782s106.644532-3.570313 145.613282-10.050782c45.964844-7.640625 66.457031-17.476562 66.457031-31.886718 0-14.414063-20.5-24.25-66.464844-31.890626zm-41.476562-271.84375-171.140625 69.757813v-139.519531zm-211.140625-104.882812c0-6.628906 5.371094-12 12-12s12 5.371094 12 12v402.300781h-24zm244.121094 425.65625c-37.386719 5.738281-86.085938 8.894531-137.121094 8.894531s-99.734375-3.15625-137.121094-8.894531c-45.238281-6.9375-56.078125-14.757812-58.421875-17.085938 3.589844-3.769531 21.542969-12.4375 72.542969-18.949218v20.277344c0 4.417968 3.390625 8.402343 7.808594 8.402343h39.910156c4.546875-.167969 8.179687-3.851562 8.28125-8.402343v-25.316407c21-1.261719 44-1.90625 67.140625-1.90625 51.039062 0 99.664062 3.160157 137.050781 8.898438 44.972656 6.902343 56.011719 14.667969 58.4375 17.042969-2.429688 2.375-13.535156 10.140624-58.507812 17.039062zm0 0"/></svg>