<svg height="512pt" viewBox="-5 0 512 512" width="512pt" xmlns="http://www.w3.org/2000/svg"><path d="m479.042969 11.898438-41.152344 102.910156-40.527344-15.445313 37.566407-93.90625c1.316406-3.292969 4.507812-5.45312475 8.054687-5.457031h27.996094c2.878906 0 5.570312 1.425781 7.1875 3.808594 1.613281 2.386718 1.941406 5.414062.875 8.089844zm0 0" fill="#5e5f62"/><path d="m396.84375 217.46875c18.917969-40.785156 32.457031-73.589844 39.398438-91.03125 2.554687-6.300781 2.464843-13.363281-.242188-19.597656-2.710938-6.238282-7.816406-11.121094-14.164062-13.550782-10.363282-3.988281-22.066407.460938-27.160157 10.324219l-59.621093 141.625c-.6875 1.59375-1.59375 3.082031-2.6875 4.425781-4.640626 5.511719-12.203126 7.585938-19.003907 5.207032-42.4375-14.925782-162.367187-55.277344-218.945312-55.277344-69.425781 0-112.816407 26.035156-86.78125 112.8125 26.035156 86.78125 60.746093 95.457031 164.882812 69.425781 63.519531-15.882812 107.691407-22.042969 142.230469-44.257812zm0 0" fill="#95a5a5"/><path d="m502.28125 312.40625c0 52.71875-42.738281 95.457031-95.457031 95.457031-52.722657 0-95.457031-42.738281-95.457031-95.457031s42.734374-95.457031 95.457031-95.457031c52.71875 0 95.457031 42.738281 95.457031 95.457031zm0 0" fill="#d1d4d1"/><path d="m484.925781 312.40625c0-52.71875-34.96875-95.457031-78.101562-95.457031-43.136719 0-78.101563 42.738281-78.101563 95.457031s34.964844 95.457031 78.101563 95.457031c43.132812 0 78.101562-42.738281 78.101562-95.457031zm0 0" fill="#e6e7e8"/><path d="m271.644531 273.910156c-4.875-4.445312-10.484375-8.011718-16.582031-10.542968-31.117188-13.527344-67.125-15.421876-100.507812-17.78125-27.238282-3.316407-54.828126-2.382813-81.78125 2.769531-13.074219 1.742187-24.089844 10.625-28.566407 23.03125-4.558593 15.765625.15625 32.585937 4.582031 47.816406 2.433594 11.785156 7.691407 22.800781 15.324219 32.105469 9.285157 8.710937 21.546875 13.546875 34.277344 13.511718 12.605469-.097656 25.144531-1.800781 37.316406-5.074218l92.671875-20.734375c12.878906-2.0625 25.273438-6.476563 36.558594-13.015625 10.773438-6.953125 17.109375-19.050782 16.6875-31.863282-.589844-7.777343-4.164062-15.023437-9.980469-20.222656zm0 0" fill="#d1d4d1"/><path d="m75.324219 296.863281c-4.316407 0-7.980469-3.175781-8.589844-7.449219-.609375-4.277343 2.015625-8.347656 6.160156-9.558593l60.746094-17.71875c4.601563-1.34375 9.417969 1.296875 10.761719 5.898437 1.339844 4.601563-1.300782 9.417969-5.902344 10.761719l-60.746094 17.71875c-.789062.230469-1.605468.347656-2.429687.347656zm0 0" fill="#7f8c8d"/><path d="m82.421875 324.242188c-4.34375.007812-8.023437-3.203126-8.605469-7.507813-.585937-4.304687 2.101563-8.378906 6.289063-9.535156l126.960937-35.429688c4.617188-1.289062 9.40625 1.40625 10.695313 6.023438 1.289062 4.621093-1.410157 9.40625-6.027344 10.699219l-126.96875 35.429687c-.761719.214844-1.550781.320313-2.34375.320313zm0 0" fill="#7f8c8d"/><path d="m104.535156 348.082031c-4.351562.003907-8.03125-3.214843-8.609375-7.527343-.574219-4.3125 2.128907-8.382813 6.328125-9.523438l142.457032-38.929688c4.625-1.265624 9.398437 1.457032 10.664062 6.082032s-1.457031 9.398437-6.082031 10.664062l-142.457031 38.929688c-.75.203125-1.523438.308594-2.300782.304687zm0 0" fill="#7f8c8d"/><path d="m406.824219 512c-4.792969 0-8.679688-3.886719-8.679688-8.679688v-69.421874c0-4.792969 3.886719-8.679688 8.679688-8.679688s8.675781 3.886719 8.675781 8.679688v69.421874c0 4.792969-3.882812 8.679688-8.675781 8.679688zm0 0" fill="#e4c05c"/><path d="m380.789062 407.863281h52.066407c3.289062 0 6.292969 1.859375 7.761719 4.796875 1.472656 2.941406 1.15625 6.460938-.816407 9.089844l-26.035156 26.03125c-1.640625 2.1875-4.210937 3.472656-6.941406 3.472656-2.734375 0-5.304688-1.285156-6.945313-3.472656l-26.03125-26.03125c-1.972656-2.628906-2.289062-6.148438-.820312-9.089844 1.46875-2.9375 4.476562-4.796875 7.761718-4.796875zm0 0" fill="#f3d55b"/><g fill="#d1d4d1"><path d="m415.5 381.832031c0 4.792969-3.882812 8.675781-8.675781 8.675781s-8.679688-3.882812-8.679688-8.675781 3.886719-8.679687 8.679688-8.679687 8.675781 3.886718 8.675781 8.679687zm0 0"/><path d="m415.5 347.117188c0 4.792968-3.882812 8.679687-8.675781 8.679687s-8.679688-3.886719-8.679688-8.679687c0-4.792969 3.886719-8.675782 8.679688-8.675782s8.675781 3.882813 8.675781 8.675782zm0 0"/><path d="m415.5 312.40625c0 4.792969-3.882812 8.679688-8.675781 8.679688s-8.679688-3.886719-8.679688-8.679688 3.886719-8.675781 8.679688-8.675781 8.675781 3.882812 8.675781 8.675781zm0 0"/><path d="m415.5 277.695312c0 4.792969-3.882812 8.675782-8.675781 8.675782s-8.679688-3.882813-8.679688-8.675782c0-4.792968 3.886719-8.679687 8.679688-8.679687s8.675781 3.886719 8.675781 8.679687zm0 0"/><path d="m415.5 242.984375c0 4.792969-3.882812 8.675781-8.675781 8.675781s-8.679688-3.882812-8.679688-8.675781 3.886719-8.679687 8.679688-8.679687 8.675781 3.886718 8.675781 8.679687zm0 0"/><path d="m441.535156 364.472656c0 4.792969-3.886718 8.679688-8.679687 8.679688s-8.675781-3.886719-8.675781-8.679688c0-4.789062 3.882812-8.675781 8.675781-8.675781s8.679687 3.886719 8.679687 8.675781zm0 0"/><path d="m441.535156 329.761719c0 4.792969-3.886718 8.679687-8.679687 8.679687s-8.675781-3.886718-8.675781-8.679687 3.882812-8.675781 8.675781-8.675781 8.679687 3.882812 8.679687 8.675781zm0 0"/><path d="m441.535156 295.050781c0 4.792969-3.886718 8.679688-8.679687 8.679688s-8.675781-3.886719-8.675781-8.679688 3.882812-8.679687 8.675781-8.679687 8.679687 3.886718 8.679687 8.679687zm0 0"/><path d="m441.535156 260.339844c0 4.792968-3.886718 8.675781-8.679687 8.675781s-8.675781-3.882813-8.675781-8.675781c0-4.792969 3.882812-8.679688 8.675781-8.679688s8.679687 3.886719 8.679687 8.679688zm0 0"/><path d="m467.570312 347.117188c0 4.792968-3.886718 8.679687-8.679687 8.679687s-8.679687-3.886719-8.679687-8.679687c0-4.792969 3.886718-8.675782 8.679687-8.675782s8.679687 3.882813 8.679687 8.675782zm0 0"/><path d="m467.570312 312.40625c0 4.792969-3.886718 8.679688-8.679687 8.679688s-8.679687-3.886719-8.679687-8.679688 3.886718-8.675781 8.679687-8.675781 8.679687 3.882812 8.679687 8.675781zm0 0"/><path d="m467.570312 277.695312c0 4.792969-3.886718 8.675782-8.679687 8.675782s-8.679687-3.882813-8.679687-8.675782c0-4.792968 3.886718-8.679687 8.679687-8.679687s8.679687 3.886719 8.679687 8.679687zm0 0"/><path d="m441.535156 364.472656c0 4.792969-3.886718 8.679688-8.679687 8.679688s-8.675781-3.886719-8.675781-8.679688c0-4.789062 3.882812-8.675781 8.675781-8.675781s8.679687 3.886719 8.679687 8.675781zm0 0"/><path d="m441.535156 329.761719c0 4.792969-3.886718 8.679687-8.679687 8.679687s-8.675781-3.886718-8.675781-8.679687 3.882812-8.675781 8.675781-8.675781 8.679687 3.882812 8.679687 8.675781zm0 0"/><path d="m441.535156 295.050781c0 4.792969-3.886718 8.679688-8.679687 8.679688s-8.675781-3.886719-8.675781-8.679688 3.882812-8.679687 8.675781-8.679687 8.679687 3.886718 8.679687 8.679687zm0 0"/><path d="m441.535156 260.339844c0 4.792968-3.886718 8.675781-8.679687 8.675781s-8.675781-3.882813-8.675781-8.675781c0-4.792969 3.882812-8.679688 8.675781-8.679688s8.679687 3.886719 8.679687 8.679688zm0 0"/><path d="m467.570312 347.117188c0 4.792968-3.886718 8.679687-8.679687 8.679687s-8.679687-3.886719-8.679687-8.679687c0-4.792969 3.886718-8.675782 8.679687-8.675782s8.679687 3.882813 8.679687 8.675782zm0 0"/><path d="m467.570312 312.40625c0 4.792969-3.886718 8.679688-8.679687 8.679688s-8.679687-3.886719-8.679687-8.679688 3.886718-8.675781 8.679687-8.675781 8.679687 3.882812 8.679687 8.675781zm0 0"/><path d="m467.570312 277.695312c0 4.792969-3.886718 8.675782-8.679687 8.675782s-8.679687-3.882813-8.679687-8.675782c0-4.792968 3.886718-8.679687 8.679687-8.679687s8.679687 3.886719 8.679687 8.679687zm0 0"/><path d="m389.46875 364.472656c0 4.792969-3.886719 8.679688-8.679688 8.679688-4.792968 0-8.679687-3.886719-8.679687-8.679688 0-4.789062 3.886719-8.675781 8.679687-8.675781 4.792969 0 8.679688 3.886719 8.679688 8.675781zm0 0"/><path d="m389.46875 329.761719c0 4.792969-3.886719 8.679687-8.679688 8.679687-4.792968 0-8.679687-3.886718-8.679687-8.679687s3.886719-8.675781 8.679687-8.675781c4.792969 0 8.679688 3.882812 8.679688 8.675781zm0 0"/><path d="m389.46875 295.050781c0 4.792969-3.886719 8.679688-8.679688 8.679688-4.792968 0-8.679687-3.886719-8.679687-8.679688s3.886719-8.679687 8.679687-8.679687c4.792969 0 8.679688 3.886718 8.679688 8.679687zm0 0"/><path d="m363.433594 347.117188c0 4.792968-3.886719 8.679687-8.679688 8.679687-4.792968 0-8.675781-3.886719-8.675781-8.679687 0-4.792969 3.882813-8.675782 8.675781-8.675782 4.792969 0 8.679688 3.882813 8.679688 8.675782zm0 0"/><path d="m363.433594 312.40625c0 4.792969-3.886719 8.679688-8.679688 8.679688-4.792968 0-8.675781-3.886719-8.675781-8.679688s3.882813-8.675781 8.675781-8.675781c4.792969 0 8.679688 3.882812 8.679688 8.675781zm0 0"/><path d="m363.433594 277.695312c0 4.792969-3.886719 8.675782-8.679688 8.675782-4.792968 0-8.675781-3.882813-8.675781-8.675782 0-4.792968 3.882813-8.679687 8.675781-8.679687 4.792969 0 8.679688 3.886719 8.679688 8.679687zm0 0"/><path d="m389.46875 260.339844c0 4.792968-3.886719 8.675781-8.679688 8.675781-4.792968 0-8.679687-3.882813-8.679687-8.675781 0-4.792969 3.886719-8.679688 8.679687-8.679688 4.792969 0 8.679688 3.886719 8.679688 8.679688zm0 0"/></g></svg>