<?xml version="1.0" encoding="iso-8859-1"?>
<!-- Generator: Adobe Illustrator 19.0.0, SVG Export Plug-In . SVG Version: 6.00 Build 0)  -->
<svg version="1.1" id="Capa_1" xmlns="http://www.w3.org/2000/svg" xmlns:xlink="http://www.w3.org/1999/xlink" x="0px" y="0px"
	 viewBox="0 0 502.896 502.896" style="enable-background:new 0 0 502.896 502.896;" xml:space="preserve">
<polygon style="fill:#E14B4B;" points="144.488,12.496 144.488,190.416 348.664,101.456 "/>
<ellipse style="fill:#7FB241;" cx="251.448" cy="411.296" rx="241.44" ry="91.6"/>
<path style="fill:#3F4347;" d="M183.048,382.88c0,7.2-13.12,13.28-30.88,14.72c-2.88,0.32-5.92,0.48-9.12,0.48s-6.24-0.16-9.12-0.48
	c-17.76-1.44-30.88-7.52-30.88-14.72s13.12-13.28,30.88-14.72c2.88-0.32,5.92-0.48,9.12-0.48s6.24,0.16,9.12,0.48
	C169.928,369.6,183.048,375.68,183.048,382.88z"/>
<path style="fill:#A5856D;" d="M152.168,9.12V397.6c-2.88,0.32-5.92,0.48-9.12,0.48s-6.24-0.16-9.12-0.48V9.12
	c0-4.96,4.16-9.12,9.12-9.12C148.168-0.016,152.168,4.144,152.168,9.12z"/>
<circle style="fill:#FFFFFF;" cx="260.728" cy="374.592" r="27.008"/>
<path style="fill:#E9EFF4;" d="M287.736,374.672c0,14.88-12.16,26.88-27.04,26.88c-10.4,0-19.36-5.76-23.84-14.4
	c3.68,2.08,8,3.2,12.64,3.2c14.88,0,27.04-12,27.04-27.04c0-4.48-1.12-8.8-3.2-12.48
	C281.976,355.312,287.736,364.272,287.736,374.672z"/>
<g>
</g>
<g>
</g>
<g>
</g>
<g>
</g>
<g>
</g>
<g>
</g>
<g>
</g>
<g>
</g>
<g>
</g>
<g>
</g>
<g>
</g>
<g>
</g>
<g>
</g>
<g>
</g>
<g>
</g>
</svg>
